<?xml version="1.0" encoding="UTF-8" ?>
<svg xmlns="http://www.w3.org/2000/svg" version="1.1" viewBox="-4450 -3200 8900 6400" >
<rect x="-4450" y="-3200" width="8900" height="6400" fill="green" />
<rect id="LEFT" x="-3775" y="-2525" width="7550" height="50" fill="white" />
<rect id="RIGHT" x="-3775" y="2475" width="7550" height="50" fill="white" />
<rect id="TOP" x="3725" y="-2525" width="50" height="5050" fill="white" />
<rect id="BOTTOM" x="-3775" y="-2525" width="50" height="5050" fill="white" />
<rect id="MIDDLE" x="-25" y="-2525" width="50" height="5050" fill="white" />
<rect id="OPP_PENALTY" x="2075" y="-2025" width="50" height="4050" fill="white" />
<rect id="OPP_PENALTY_LEFT" x="2075" y="-2025" width="1700" height="50" fill="white" />
<rect id="OPP_PENALTY_RIGHT" x="2075" y="1975" width="1700" height="50" fill="white" />
<rect id="OPP_PENALTY_SHOOTMARK0" x="2400" y="-25" width="100" height="50" fill="white" />
<rect id="OPP_PENALTY_SHOOTMARK1" x="2425" y="-50" width="50" height="100" fill="white" />
<rect id="OWN_PENALTY" x="-2125" y="-2025" width="50" height="4050" fill="white" />
<rect id="OWN_PENALTY_LEFT" x="-3775" y="-2025" width="1700" height="50" fill="white" />
<rect id="OWN_PENALTY_RIGHT" x="-3775" y="1975" width="1700" height="50" fill="white" />
<rect id="OWN_PENALTY_SHOOTMARK0" x="-2500" y="-25" width="100" height="50" fill="white" />
<rect id="OWN_PENALTY_SHOOTMARK1" x="-2475" y="-50" width="50" height="100" fill="white" />
<rect id="OPP_GOALBOX" x="3125" y="-1125" width="50" height="2250" fill="white" />
<rect id="OPP_GOALBOX_LEFT" x="3125" y="-1125" width="650" height="50" fill="white" />
<rect id="OPP_GOALBOX_RIGHT" x="3125" y="1075" width="650" height="50" fill="white" />
<rect id="OWN_GOALBOX" x="-3175" y="-1125" width="50" height="2250" fill="white" />
<rect id="OWN_GOALBOX_LEFT" x="-3775" y="-1125" width="650" height="50" fill="white" />
<rect id="OWN_GOALBOX_RIGHT" x="-3775" y="1075" width="650" height="50" fill="white" />
<rect id="OPP_GOALBACK_BACK" x="4225" y="-825" width="50" height="1650" fill="white" />
<rect id="OPP_GOALBACK_LEFT" x="3725" y="-825" width="550" height="50" fill="white" />
<rect id="OPP_GOALBACK_RIGHT" x="3725" y="775" width="550" height="50" fill="white" />
<rect id="OWN_GOALBACK_BACK" x="-4275" y="-825" width="50" height="1650" fill="white" />
<rect id="OWN_GOALBACK_LEFT" x="-4275" y="-825" width="550" height="50" fill="white" />
<rect id="OWN_GOALBACK_RIGHT" x="-4275" y="775" width="550" height="50" fill="white" />
<rect id="KICKOFF_SPOT" x="-50" y="-25" width="100" height="50" fill="white" />
<circle id="CENTER_CIRCLE" cx="0" cy="-0" r="750" stroke="white" stroke-width="50" fill="none"/>
<circle id="OPP_LEFT" cx="3775" cy="-800" r="50" stroke="lightgray" stroke-width="0" fill="lightgray"/>
<circle id="OPP_RIGHT" cx="3775" cy="800" r="50" stroke="lightgray" stroke-width="0" fill="lightgray"/>
<circle id="OWN_LEFT" cx="-3775" cy="-800" r="50" stroke="lightgray" stroke-width="0" fill="lightgray"/>
<circle id="OWN_RIGHT" cx="-3775" cy="800" r="50" stroke="lightgray" stroke-width="0" fill="lightgray"/>
</svg>